<?xml version="1.0" standalone="no"?><!DOCTYPE svg PUBLIC "-//W3C//DTD SVG 1.1//EN" "http://www.w3.org/Graphics/SVG/1.1/DTD/svg11.dtd"><svg t="1630292327663" class="icon" viewBox="0 0 1024 1024" version="1.1" xmlns="http://www.w3.org/2000/svg" p-id="2128" xmlns:xlink="http://www.w3.org/1999/xlink" width="200" height="200"><defs><style type="text/css"></style></defs><path d="M376.4736 102.4a25.6 25.6 0 0 1 22.9376 14.2336L512 343.5008l112.64-226.8672a25.6 25.6 0 0 1 18.1248-13.824L647.5264 102.4H972.8a25.6 25.6 0 0 1 22.3232 38.144l-460.8 819.2a25.6 25.6 0 0 1-44.6464 0l-460.8-819.2A25.6 25.6 0 0 1 51.2 102.4zM190.2592 153.6H94.976L512 894.976 928.9728 153.6h-95.3344l-299.6736 499.5584a25.6 25.6 0 0 1-41.1648 3.7888l-2.7648-3.7888L190.2592 153.6z m170.3424 0h-110.592L512 590.2336 773.888 153.6h-110.5408l-128.4096 258.8672a25.6 25.6 0 0 1-43.4176 3.9936l-2.4576-3.9936L360.6016 153.6z" fill="#000000" p-id="2129"></path></svg>